<svg xmlns="http://www.w3.org/2000/svg" viewBox="0 0 300 300" fill="none">
  <!-- Delicate floral corner decoration -->
  <g stroke="#D4AFA0" stroke-width="1.2" stroke-linecap="round" fill="none" opacity="0.9">
    <!-- Main branch -->
    <path d="M10 290 C60 240, 100 200, 140 160 C160 140, 180 110, 200 80 C220 50, 250 20, 280 10"/>

    <!-- Leaves along main branch -->
    <path d="M60 240 C50 220, 35 225, 30 240 C25 255, 40 260, 60 240"/>
    <path d="M70 235 C80 215, 95 210, 100 225 C105 240, 90 245, 70 235"/>

    <path d="M100 200 C85 185, 75 190, 75 205 C75 220, 90 218, 100 200"/>
    <path d="M110 195 C125 180, 140 182, 135 198 C130 214, 118 210, 110 195"/>

    <path d="M145 155 C130 140, 118 145, 120 160 C122 175, 138 170, 145 155"/>
    <path d="M155 148 C170 133, 183 138, 178 155 C173 172, 160 165, 155 148"/>

    <path d="M190 105 C175 90, 163 95, 166 112 C169 129, 183 122, 190 105"/>
    <path d="M200 95 C215 82, 228 88, 222 105 C216 122, 205 113, 200 95"/>

    <!-- Small flower 1 -->
    <circle cx="50" cy="248" r="4" stroke-width="1"/>
    <path d="M46 248 C44 240, 50 236, 54 240"/>
    <path d="M54 248 C56 240, 50 236, 46 240"/>
    <path d="M50 244 C50 238, 46 236, 44 240"/>
    <path d="M50 252 C44 256, 42 250, 46 248"/>
    <path d="M50 252 C56 256, 58 250, 54 248"/>

    <!-- Small flower 2 -->
    <circle cx="170" cy="128" r="4" stroke-width="1"/>
    <path d="M166 128 C164 120, 170 116, 174 120"/>
    <path d="M174 128 C176 120, 170 116, 166 120"/>
    <path d="M170 124 C170 118, 166 116, 164 120"/>
    <path d="M170 132 C164 136, 162 130, 166 128"/>
    <path d="M170 132 C176 136, 178 130, 174 128"/>

    <!-- Small flower 3 -->
    <circle cx="240" cy="50" r="5" stroke-width="1"/>
    <path d="M235 50 C232 40, 240 35, 245 40"/>
    <path d="M245 50 C248 40, 240 35, 235 40"/>
    <path d="M240 45 C240 38, 235 35, 232 40"/>
    <path d="M240 55 C233 60, 230 53, 235 50"/>
    <path d="M240 55 C247 60, 250 53, 245 50"/>

    <!-- Small buds -->
    <path d="M80 220 C75 210, 82 205, 85 212"/>
    <path d="M130 170 C125 160, 132 155, 135 162"/>
    <path d="M215 65 C210 55, 217 50, 220 57"/>

    <!-- Tiny dots (flower centers) -->
    <circle cx="50" cy="248" r="1.5" fill="#D4AFA0"/>
    <circle cx="170" cy="128" r="1.5" fill="#D4AFA0"/>
    <circle cx="240" cy="50" r="2" fill="#D4AFA0"/>

    <!-- Delicate secondary branches -->
    <path d="M40 265 C25 270, 15 258, 20 245"/>
    <path d="M120 180 C105 175, 100 185, 108 195"/>
    <path d="M225 40 C240 30, 255 35, 260 50"/>
  </g>
</svg>
